<mxfile host="Electron" agent="Mozilla/5.0 (Macintosh; Intel Mac OS X 10_15_7) AppleWebKit/537.36 (KHTML, like Gecko) draw.io/24.7.8 Chrome/128.0.6613.36 Electron/32.0.1 Safari/537.36" version="24.7.8">
  <diagram name="Page-1" id="yGEEBYdAHtjWrQ1hywJq">
    <mxGraphModel dx="813" dy="1055" grid="1" gridSize="10" guides="1" tooltips="1" connect="1" arrows="1" fold="1" page="1" pageScale="1" pageWidth="827" pageHeight="1169" math="0" shadow="0">
      <root>
        <mxCell id="0" />
        <mxCell id="1" parent="0" />
        <mxCell id="GXLGQrvdn1vJv16QOAwp-51" style="edgeStyle=orthogonalEdgeStyle;rounded=0;orthogonalLoop=1;jettySize=auto;html=1;endArrow=async;endFill=1;endSize=8;" edge="1" parent="1" source="GXLGQrvdn1vJv16QOAwp-49" target="GXLGQrvdn1vJv16QOAwp-38">
          <mxGeometry relative="1" as="geometry">
            <Array as="points">
              <mxPoint x="1540" y="870" />
              <mxPoint x="1540" y="870" />
            </Array>
          </mxGeometry>
        </mxCell>
        <mxCell id="GXLGQrvdn1vJv16QOAwp-49" value="Binance" style="ellipse;shape=cloud;whiteSpace=wrap;html=1;" vertex="1" parent="1">
          <mxGeometry x="1110" y="760" width="250" height="220" as="geometry" />
        </mxCell>
        <mxCell id="GXLGQrvdn1vJv16QOAwp-8" style="edgeStyle=orthogonalEdgeStyle;rounded=0;orthogonalLoop=1;jettySize=auto;html=1;endArrow=async;endFill=1;strokeWidth=2;endSize=8;strokeColor=#0000CC;" edge="1" parent="1" source="GXLGQrvdn1vJv16QOAwp-4" target="GXLGQrvdn1vJv16QOAwp-7">
          <mxGeometry relative="1" as="geometry">
            <Array as="points">
              <mxPoint x="980" y="260" />
              <mxPoint x="980" y="260" />
            </Array>
          </mxGeometry>
        </mxCell>
        <mxCell id="GXLGQrvdn1vJv16QOAwp-4" value="Alice&#39;s&lt;div&gt;Wallet&lt;/div&gt;" style="rounded=0;whiteSpace=wrap;html=1;fillColor=#e1d5e7;strokeColor=#9673a6;" vertex="1" parent="1">
          <mxGeometry x="920" y="120" width="120" height="60" as="geometry" />
        </mxCell>
        <mxCell id="GXLGQrvdn1vJv16QOAwp-10" style="edgeStyle=orthogonalEdgeStyle;rounded=0;orthogonalLoop=1;jettySize=auto;html=1;endArrow=async;endFill=1;strokeWidth=2;endSize=8;strokeColor=#0000CC;" edge="1" parent="1" source="GXLGQrvdn1vJv16QOAwp-7" target="GXLGQrvdn1vJv16QOAwp-9">
          <mxGeometry relative="1" as="geometry">
            <Array as="points">
              <mxPoint x="1040" y="300" />
              <mxPoint x="1040" y="300" />
            </Array>
          </mxGeometry>
        </mxCell>
        <mxCell id="GXLGQrvdn1vJv16QOAwp-39" style="edgeStyle=orthogonalEdgeStyle;rounded=0;orthogonalLoop=1;jettySize=auto;html=1;endArrow=async;endFill=1;endSize=8;" edge="1" parent="1" source="GXLGQrvdn1vJv16QOAwp-7" target="GXLGQrvdn1vJv16QOAwp-38">
          <mxGeometry relative="1" as="geometry">
            <Array as="points">
              <mxPoint x="1170" y="290" />
            </Array>
          </mxGeometry>
        </mxCell>
        <mxCell id="GXLGQrvdn1vJv16QOAwp-7" value="Arbitrum (Blockchain)" style="html=1;outlineConnect=0;fillColor=#e1d5e7;strokeColor=#9673a6;gradientDirection=north;strokeWidth=2;shape=mxgraph.networks.bus;gradientColor=none;gradientDirection=north;perimeter=backbonePerimeter;backboneSize=20;" vertex="1" parent="1">
          <mxGeometry x="900" y="240" width="300" height="20" as="geometry" />
        </mxCell>
        <mxCell id="GXLGQrvdn1vJv16QOAwp-14" style="edgeStyle=orthogonalEdgeStyle;rounded=0;orthogonalLoop=1;jettySize=auto;html=1;endArrow=async;endFill=1;strokeWidth=2;endSize=8;strokeColor=#00CC00;" edge="1" parent="1" source="GXLGQrvdn1vJv16QOAwp-24" target="GXLGQrvdn1vJv16QOAwp-13">
          <mxGeometry relative="1" as="geometry">
            <Array as="points">
              <mxPoint x="1040" y="530" />
              <mxPoint x="1040" y="530" />
            </Array>
          </mxGeometry>
        </mxCell>
        <mxCell id="GXLGQrvdn1vJv16QOAwp-53" style="edgeStyle=orthogonalEdgeStyle;rounded=0;orthogonalLoop=1;jettySize=auto;html=1;endArrow=async;endFill=1;endSize=8;strokeColor=#CC0000;strokeWidth=2;" edge="1" parent="1" source="GXLGQrvdn1vJv16QOAwp-7" target="GXLGQrvdn1vJv16QOAwp-13">
          <mxGeometry relative="1" as="geometry">
            <Array as="points">
              <mxPoint x="930" y="400" />
              <mxPoint x="930" y="400" />
            </Array>
          </mxGeometry>
        </mxCell>
        <mxCell id="GXLGQrvdn1vJv16QOAwp-74" style="edgeStyle=orthogonalEdgeStyle;rounded=0;orthogonalLoop=1;jettySize=auto;html=1;endArrow=async;endFill=1;strokeWidth=2;endSize=8;strokeColor=#CC0000;" edge="1" parent="1" source="GXLGQrvdn1vJv16QOAwp-9" target="GXLGQrvdn1vJv16QOAwp-7">
          <mxGeometry relative="1" as="geometry">
            <mxPoint x="950" y="290" as="targetPoint" />
            <Array as="points">
              <mxPoint x="1010" y="300" />
              <mxPoint x="1010" y="300" />
            </Array>
          </mxGeometry>
        </mxCell>
        <mxCell id="GXLGQrvdn1vJv16QOAwp-9" value="&lt;span style=&quot;background-color: initial;&quot;&gt;Our&lt;/span&gt;&lt;div&gt;&lt;span style=&quot;background-color: initial;&quot;&gt;Custody&lt;/span&gt;&lt;/div&gt;&lt;div&gt;&lt;span style=&quot;background-color: initial;&quot;&gt;(on Arbitrum)&lt;/span&gt;&lt;/div&gt;" style="rounded=0;whiteSpace=wrap;html=1;fillColor=#fff2cc;strokeColor=#d6b656;" vertex="1" parent="1">
          <mxGeometry x="980" y="330" width="120" height="60" as="geometry" />
        </mxCell>
        <mxCell id="GXLGQrvdn1vJv16QOAwp-12" style="edgeStyle=orthogonalEdgeStyle;rounded=0;orthogonalLoop=1;jettySize=auto;html=1;" edge="1" parent="1" source="GXLGQrvdn1vJv16QOAwp-11" target="GXLGQrvdn1vJv16QOAwp-4">
          <mxGeometry relative="1" as="geometry" />
        </mxCell>
        <mxCell id="GXLGQrvdn1vJv16QOAwp-11" value="Alice" style="shape=umlActor;verticalLabelPosition=bottom;verticalAlign=top;html=1;outlineConnect=0;" vertex="1" parent="1">
          <mxGeometry x="840" y="30" width="30" height="60" as="geometry" />
        </mxCell>
        <mxCell id="GXLGQrvdn1vJv16QOAwp-16" style="edgeStyle=orthogonalEdgeStyle;rounded=0;orthogonalLoop=1;jettySize=auto;html=1;endArrow=async;endFill=1;strokeWidth=2;endSize=8;strokeColor=#00CC00;" edge="1" parent="1" source="GXLGQrvdn1vJv16QOAwp-13" target="GXLGQrvdn1vJv16QOAwp-15">
          <mxGeometry relative="1" as="geometry">
            <Array as="points">
              <mxPoint x="1260" y="590" />
              <mxPoint x="1260" y="590" />
            </Array>
          </mxGeometry>
        </mxCell>
        <mxCell id="GXLGQrvdn1vJv16QOAwp-42" style="edgeStyle=orthogonalEdgeStyle;rounded=0;orthogonalLoop=1;jettySize=auto;html=1;endArrow=async;endFill=1;endSize=8;" edge="1" parent="1" source="GXLGQrvdn1vJv16QOAwp-13" target="GXLGQrvdn1vJv16QOAwp-38">
          <mxGeometry relative="1" as="geometry">
            <Array as="points">
              <mxPoint x="1210" y="460" />
            </Array>
          </mxGeometry>
        </mxCell>
        <mxCell id="GXLGQrvdn1vJv16QOAwp-76" style="edgeStyle=orthogonalEdgeStyle;rounded=0;orthogonalLoop=1;jettySize=auto;html=1;endArrow=async;endFill=1;endSize=8;strokeColor=#CC0000;strokeWidth=2;" edge="1" parent="1" source="GXLGQrvdn1vJv16QOAwp-13" target="GXLGQrvdn1vJv16QOAwp-24">
          <mxGeometry relative="1" as="geometry">
            <Array as="points">
              <mxPoint x="1010" y="530" />
              <mxPoint x="1010" y="530" />
            </Array>
          </mxGeometry>
        </mxCell>
        <mxCell id="GXLGQrvdn1vJv16QOAwp-13" value="Base (Blockchain)" style="html=1;outlineConnect=0;fillColor=#e1d5e7;strokeColor=#9673a6;gradientDirection=north;strokeWidth=2;shape=mxgraph.networks.bus;gradientColor=none;gradientDirection=north;perimeter=backbonePerimeter;backboneSize=20;" vertex="1" parent="1">
          <mxGeometry x="900" y="560" width="420" height="20" as="geometry" />
        </mxCell>
        <mxCell id="GXLGQrvdn1vJv16QOAwp-18" style="edgeStyle=orthogonalEdgeStyle;rounded=0;orthogonalLoop=1;jettySize=auto;html=1;endArrow=async;endFill=1;strokeWidth=2;endSize=8;strokeColor=#FF8000;" edge="1" parent="1" source="GXLGQrvdn1vJv16QOAwp-15" target="GXLGQrvdn1vJv16QOAwp-17">
          <mxGeometry relative="1" as="geometry" />
        </mxCell>
        <mxCell id="GXLGQrvdn1vJv16QOAwp-63" style="edgeStyle=orthogonalEdgeStyle;rounded=0;orthogonalLoop=1;jettySize=auto;html=1;endArrow=async;endFill=1;endSize=8;" edge="1" parent="1" source="GXLGQrvdn1vJv16QOAwp-15" target="GXLGQrvdn1vJv16QOAwp-38">
          <mxGeometry relative="1" as="geometry">
            <Array as="points">
              <mxPoint x="1290" y="610" />
            </Array>
          </mxGeometry>
        </mxCell>
        <mxCell id="GXLGQrvdn1vJv16QOAwp-15" value="&lt;span style=&quot;background-color: initial;&quot;&gt;Binance&lt;/span&gt;&lt;div&gt;&lt;span style=&quot;background-color: initial;&quot;&gt;Custody&lt;/span&gt;&lt;/div&gt;" style="rounded=0;whiteSpace=wrap;html=1;fillColor=#e1d5e7;strokeColor=#9673a6;" vertex="1" parent="1">
          <mxGeometry x="1200" y="640" width="120" height="60" as="geometry" />
        </mxCell>
        <mxCell id="GXLGQrvdn1vJv16QOAwp-17" value="&lt;div&gt;Our&lt;/div&gt;&lt;div&gt;Subaccount&lt;/div&gt;&lt;div&gt;(on&amp;nbsp;&lt;span style=&quot;background-color: initial;&quot;&gt;Binance)&lt;/span&gt;&lt;/div&gt;" style="rounded=0;whiteSpace=wrap;html=1;fillColor=#fff2cc;strokeColor=#d6b656;" vertex="1" parent="1">
          <mxGeometry x="1200" y="790" width="120" height="60" as="geometry" />
        </mxCell>
        <mxCell id="GXLGQrvdn1vJv16QOAwp-19" value="" style="image;html=1;image=img/lib/clip_art/finance/Coins_128x128.png" vertex="1" parent="1">
          <mxGeometry x="940" y="190" width="50" height="40" as="geometry" />
        </mxCell>
        <mxCell id="GXLGQrvdn1vJv16QOAwp-20" value="" style="image;html=1;image=img/lib/clip_art/finance/Coins_128x128.png" vertex="1" parent="1">
          <mxGeometry x="1000" y="275" width="50" height="40" as="geometry" />
        </mxCell>
        <mxCell id="GXLGQrvdn1vJv16QOAwp-21" value="" style="image;html=1;image=img/lib/clip_art/finance/Coins_128x128.png" vertex="1" parent="1">
          <mxGeometry x="1000" y="510" width="50" height="40" as="geometry" />
        </mxCell>
        <mxCell id="GXLGQrvdn1vJv16QOAwp-22" value="" style="image;html=1;image=img/lib/clip_art/finance/Coins_128x128.png" vertex="1" parent="1">
          <mxGeometry x="1220" y="590" width="50" height="40" as="geometry" />
        </mxCell>
        <mxCell id="GXLGQrvdn1vJv16QOAwp-23" value="" style="image;html=1;image=img/lib/clip_art/finance/Coins_128x128.png" vertex="1" parent="1">
          <mxGeometry x="1220" y="720" width="50" height="40" as="geometry" />
        </mxCell>
        <mxCell id="GXLGQrvdn1vJv16QOAwp-24" value="&lt;span style=&quot;background-color: initial;&quot;&gt;Our&lt;/span&gt;&lt;div&gt;&lt;span style=&quot;background-color: initial;&quot;&gt;Custody&lt;/span&gt;&lt;/div&gt;&lt;div&gt;&lt;span style=&quot;background-color: initial;&quot;&gt;(on Base)&lt;/span&gt;&lt;/div&gt;" style="rounded=0;whiteSpace=wrap;html=1;fillColor=#fff2cc;strokeColor=#d6b656;" vertex="1" parent="1">
          <mxGeometry x="980" y="440" width="120" height="60" as="geometry" />
        </mxCell>
        <mxCell id="GXLGQrvdn1vJv16QOAwp-36" value="Deposit" style="whiteSpace=wrap;html=1;shape=mxgraph.basic.document;fillColor=#f5f5f5;fontColor=#333333;strokeColor=#666666;" vertex="1" parent="1">
          <mxGeometry x="1320" y="230" width="80" height="80" as="geometry" />
        </mxCell>
        <mxCell id="GXLGQrvdn1vJv16QOAwp-41" style="edgeStyle=orthogonalEdgeStyle;rounded=0;orthogonalLoop=1;jettySize=auto;html=1;" edge="1" parent="1" source="GXLGQrvdn1vJv16QOAwp-38" target="GXLGQrvdn1vJv16QOAwp-7">
          <mxGeometry relative="1" as="geometry">
            <Array as="points">
              <mxPoint x="1140" y="350" />
            </Array>
          </mxGeometry>
        </mxCell>
        <mxCell id="GXLGQrvdn1vJv16QOAwp-47" style="edgeStyle=orthogonalEdgeStyle;rounded=0;orthogonalLoop=1;jettySize=auto;html=1;" edge="1" parent="1" source="GXLGQrvdn1vJv16QOAwp-38" target="GXLGQrvdn1vJv16QOAwp-15">
          <mxGeometry relative="1" as="geometry">
            <Array as="points">
              <mxPoint x="1540" y="690" />
              <mxPoint x="1540" y="690" />
            </Array>
          </mxGeometry>
        </mxCell>
        <mxCell id="GXLGQrvdn1vJv16QOAwp-61" style="edgeStyle=orthogonalEdgeStyle;rounded=0;orthogonalLoop=1;jettySize=auto;html=1;" edge="1" parent="1" source="GXLGQrvdn1vJv16QOAwp-38" target="GXLGQrvdn1vJv16QOAwp-13">
          <mxGeometry relative="1" as="geometry">
            <Array as="points">
              <mxPoint x="1260" y="530" />
            </Array>
          </mxGeometry>
        </mxCell>
        <mxCell id="GXLGQrvdn1vJv16QOAwp-38" value="" style="line;strokeWidth=4;direction=south;html=1;perimeter=backbonePerimeter;points=[];outlineConnect=0;" vertex="1" parent="1">
          <mxGeometry x="1580" y="80" width="40" height="920" as="geometry" />
        </mxCell>
        <mxCell id="GXLGQrvdn1vJv16QOAwp-43" value="&lt;div&gt;X-Chain&lt;/div&gt;Transfer&lt;div&gt;Completed&lt;/div&gt;" style="whiteSpace=wrap;html=1;shape=mxgraph.basic.document;fillColor=#f5f5f5;fontColor=#333333;strokeColor=#666666;" vertex="1" parent="1">
          <mxGeometry x="1330" y="400" width="80" height="80" as="geometry" />
        </mxCell>
        <mxCell id="GXLGQrvdn1vJv16QOAwp-44" value="Begin&lt;div&gt;X-Chain&lt;br&gt;&lt;div&gt;Transfer&lt;/div&gt;&lt;/div&gt;" style="whiteSpace=wrap;html=1;shape=mxgraph.basic.document;fillColor=#f5f5f5;fontColor=#333333;strokeColor=#666666;" vertex="1" parent="1">
          <mxGeometry x="1450" y="320" width="80" height="80" as="geometry" />
        </mxCell>
        <mxCell id="GXLGQrvdn1vJv16QOAwp-28" value="Index&lt;div&gt;Maker&lt;/div&gt;" style="ellipse;shape=cloud;whiteSpace=wrap;html=1;" vertex="1" parent="1">
          <mxGeometry x="1720" y="350" width="280" height="250" as="geometry" />
        </mxCell>
        <mxCell id="GXLGQrvdn1vJv16QOAwp-46" value="Collateral&lt;div&gt;Manager&lt;/div&gt;" style="rounded=0;whiteSpace=wrap;html=1;fillColor=#fff2cc;strokeColor=#d6b656;" vertex="1" parent="1">
          <mxGeometry x="1740" y="500" width="120" height="60" as="geometry" />
        </mxCell>
        <mxCell id="GXLGQrvdn1vJv16QOAwp-40" style="edgeStyle=orthogonalEdgeStyle;rounded=0;orthogonalLoop=1;jettySize=auto;html=1;startArrow=classic;startFill=1;shape=flexArrow;endSize=6;strokeWidth=1;fillColor=default;" edge="1" parent="1" source="GXLGQrvdn1vJv16QOAwp-38" target="GXLGQrvdn1vJv16QOAwp-46">
          <mxGeometry relative="1" as="geometry">
            <Array as="points">
              <mxPoint x="1640" y="530" />
              <mxPoint x="1640" y="530" />
            </Array>
          </mxGeometry>
        </mxCell>
        <mxCell id="GXLGQrvdn1vJv16QOAwp-48" value="&lt;div&gt;&lt;span style=&quot;background-color: initial;&quot;&gt;Transfer&amp;nbsp;&lt;/span&gt;&lt;span style=&quot;background-color: initial;&quot;&gt;to&lt;/span&gt;&lt;/div&gt;&lt;div&gt;&lt;span style=&quot;background-color: initial;&quot;&gt;Binance&lt;/span&gt;&lt;/div&gt;&lt;div&gt;&lt;span style=&quot;background-color: initial;&quot;&gt;Subaccount&lt;/span&gt;&lt;/div&gt;" style="whiteSpace=wrap;html=1;shape=mxgraph.basic.document;fillColor=#f5f5f5;fontColor=#333333;strokeColor=#666666;" vertex="1" parent="1">
          <mxGeometry x="1360" y="660" width="80" height="80" as="geometry" />
        </mxCell>
        <mxCell id="GXLGQrvdn1vJv16QOAwp-52" value="&lt;div&gt;Binance&lt;/div&gt;&lt;div&gt;Account&lt;/div&gt;&lt;div&gt;Status&lt;/div&gt;" style="whiteSpace=wrap;html=1;shape=mxgraph.basic.document;fillColor=#f5f5f5;fontColor=#333333;strokeColor=#666666;" vertex="1" parent="1">
          <mxGeometry x="1420" y="810" width="80" height="80" as="geometry" />
        </mxCell>
        <mxCell id="GXLGQrvdn1vJv16QOAwp-54" value="" style="image;html=1;image=img/lib/clip_art/finance/Coins_128x128.png" vertex="1" parent="1">
          <mxGeometry x="890" y="390" width="50" height="40" as="geometry" />
        </mxCell>
        <mxCell id="GXLGQrvdn1vJv16QOAwp-55" value="1. Alice transfers collateral into our custody" style="text;html=1;align=left;verticalAlign=middle;resizable=0;points=[];autosize=1;strokeColor=none;fillColor=none;fontColor=#0000CC;" vertex="1" parent="1">
          <mxGeometry x="995" y="200" width="250" height="30" as="geometry" />
        </mxCell>
        <mxCell id="GXLGQrvdn1vJv16QOAwp-56" value="3. We receive on-chain event" style="text;html=1;align=center;verticalAlign=middle;resizable=0;points=[];autosize=1;strokeColor=none;fillColor=none;" vertex="1" parent="1">
          <mxGeometry x="1410" y="260" width="180" height="30" as="geometry" />
        </mxCell>
        <mxCell id="GXLGQrvdn1vJv16QOAwp-57" value="4. We initiate x-chain transfer" style="text;html=1;align=center;verticalAlign=middle;resizable=0;points=[];autosize=1;strokeColor=none;fillColor=none;" vertex="1" parent="1">
          <mxGeometry x="1260" y="328" width="180" height="30" as="geometry" />
        </mxCell>
        <mxCell id="GXLGQrvdn1vJv16QOAwp-58" value="5. X-chain transfer happens" style="text;html=1;align=center;verticalAlign=middle;resizable=0;points=[];autosize=1;strokeColor=none;fillColor=none;fontColor=#CC0000;" vertex="1" parent="1">
          <mxGeometry x="930" y="400" width="170" height="30" as="geometry" />
        </mxCell>
        <mxCell id="GXLGQrvdn1vJv16QOAwp-59" value="6. We learn that&amp;nbsp;&lt;span style=&quot;background-color: initial;&quot;&gt;x-chain&lt;/span&gt;&lt;div&gt;&lt;span style=&quot;background-color: initial;&quot;&gt;transfer has&amp;nbsp;&lt;/span&gt;&lt;span style=&quot;background-color: initial;&quot;&gt;finished&lt;/span&gt;&lt;/div&gt;" style="text;html=1;align=left;verticalAlign=middle;resizable=0;points=[];autosize=1;strokeColor=none;fillColor=none;" vertex="1" parent="1">
          <mxGeometry x="1420" y="420" width="150" height="40" as="geometry" />
        </mxCell>
        <mxCell id="GXLGQrvdn1vJv16QOAwp-62" value="7. We initiate transfer into Binance custody" style="text;html=1;align=center;verticalAlign=middle;resizable=0;points=[];autosize=1;strokeColor=none;fillColor=none;" vertex="1" parent="1">
          <mxGeometry x="1270" y="500" width="250" height="30" as="geometry" />
        </mxCell>
        <mxCell id="GXLGQrvdn1vJv16QOAwp-64" value="Custody&lt;div&gt;Account&lt;/div&gt;&lt;div&gt;Status&lt;/div&gt;" style="whiteSpace=wrap;html=1;shape=mxgraph.basic.document;fillColor=#f5f5f5;fontColor=#333333;strokeColor=#666666;" vertex="1" parent="1">
          <mxGeometry x="1370" y="545" width="80" height="80" as="geometry" />
        </mxCell>
        <mxCell id="GXLGQrvdn1vJv16QOAwp-65" value="10. We receive Binance&lt;div&gt;custody&amp;nbsp;&lt;span style=&quot;background-color: initial;&quot;&gt;account state&lt;/span&gt;&lt;/div&gt;" style="text;html=1;align=left;verticalAlign=middle;resizable=0;points=[];autosize=1;strokeColor=none;fillColor=none;" vertex="1" parent="1">
          <mxGeometry x="1460" y="573" width="150" height="40" as="geometry" />
        </mxCell>
        <mxCell id="GXLGQrvdn1vJv16QOAwp-66" value="11. We initiate transfer &lt;span style=&quot;background-color: initial;&quot;&gt;to&lt;/span&gt;&lt;div style=&quot;&quot;&gt;&lt;span style=&quot;background-color: initial;&quot;&gt;subaccount on Binance&lt;/span&gt;&lt;/div&gt;" style="text;html=1;align=left;verticalAlign=middle;resizable=0;points=[];autosize=1;strokeColor=none;fillColor=none;" vertex="1" parent="1">
          <mxGeometry x="1450" y="650" width="160" height="40" as="geometry" />
        </mxCell>
        <mxCell id="GXLGQrvdn1vJv16QOAwp-67" value="8. Transfer happens" style="text;html=1;align=center;verticalAlign=middle;resizable=0;points=[];autosize=1;strokeColor=none;fillColor=none;fontColor=#00CC00;" vertex="1" parent="1">
          <mxGeometry x="1050" y="510" width="130" height="30" as="geometry" />
        </mxCell>
        <mxCell id="GXLGQrvdn1vJv16QOAwp-68" value="9. Transfer happens" style="text;html=1;align=center;verticalAlign=middle;resizable=0;points=[];autosize=1;strokeColor=none;fillColor=none;fontColor=#00CC00;" vertex="1" parent="1">
          <mxGeometry x="1090" y="600" width="130" height="30" as="geometry" />
        </mxCell>
        <mxCell id="GXLGQrvdn1vJv16QOAwp-69" value="12. Transfer happens" style="text;html=1;align=center;verticalAlign=middle;resizable=0;points=[];autosize=1;strokeColor=none;fillColor=none;fontColor=#FF8000;" vertex="1" parent="1">
          <mxGeometry x="1085" y="725" width="140" height="30" as="geometry" />
        </mxCell>
        <mxCell id="GXLGQrvdn1vJv16QOAwp-70" value="13. We receive Binance&lt;div&gt;sub&lt;span style=&quot;background-color: initial;&quot;&gt;account state&lt;/span&gt;&lt;/div&gt;" style="text;html=1;align=left;verticalAlign=middle;resizable=0;points=[];autosize=1;strokeColor=none;fillColor=none;" vertex="1" parent="1">
          <mxGeometry x="1460" y="900" width="150" height="40" as="geometry" />
        </mxCell>
        <mxCell id="GXLGQrvdn1vJv16QOAwp-71" value="2. Custody&lt;div&gt;receives&lt;div&gt;collateral&lt;/div&gt;&lt;/div&gt;" style="text;html=1;align=left;verticalAlign=middle;resizable=0;points=[];autosize=1;strokeColor=none;fillColor=none;fontColor=#0000CC;" vertex="1" parent="1">
          <mxGeometry x="1050" y="260" width="80" height="60" as="geometry" />
        </mxCell>
        <mxCell id="GXLGQrvdn1vJv16QOAwp-77" value="5." style="text;html=1;align=center;verticalAlign=middle;resizable=0;points=[];autosize=1;strokeColor=none;fillColor=none;fontColor=#CC0000;" vertex="1" parent="1">
          <mxGeometry x="980" y="275" width="30" height="30" as="geometry" />
        </mxCell>
        <mxCell id="GXLGQrvdn1vJv16QOAwp-78" value="5." style="text;html=1;align=center;verticalAlign=middle;resizable=0;points=[];autosize=1;strokeColor=none;fillColor=none;fontColor=#CC0000;" vertex="1" parent="1">
          <mxGeometry x="980" y="515" width="30" height="30" as="geometry" />
        </mxCell>
      </root>
    </mxGraphModel>
  </diagram>
</mxfile>
